<?xml version="1.0" encoding="utf-8"?>
<svg width="256" height="256" viewBox="0 0 256 256" fill="none" xmlns="http://www.w3.org/2000/svg">
  <defs>
    <clipPath id="clip_path_1">
      <rect width="256" height="256" />
    </clipPath>
    <radialGradient id="gradient_2" gradientUnits="userSpaceOnUse" cx="0" cy="0" r="1" gradientTransform="matrix(0 229.098 -114.549 0 114.549 0)">
      <stop offset="0" stop-color="#FFFFFF" />
      <stop offset="1" stop-color="#BCADAD" />
    </radialGradient>
    <linearGradient id="gradient_3" gradientUnits="userSpaceOnUse" x1="82.988" y1="1.922" x2="4.047" y2="173.934">
      <stop offset="0" stop-color="#C7A1A1" />
      <stop offset="0.997" stop-color="#430D0D" />
    </linearGradient>
    <linearGradient id="gradient_4" gradientUnits="userSpaceOnUse" x1="4.047" y1="1.922" x2="82.988" y2="173.934">
      <stop offset="0" stop-color="#C7A1A1" />
      <stop offset="0.997" stop-color="#430D0D" />
    </linearGradient>
    <linearGradient id="gradient_5" gradientUnits="userSpaceOnUse" x1="74.482" y1="0" x2="74.482" y2="7.191">
      <stop offset="0" stop-color="#5E1E1E" />
      <stop offset="0.989" stop-color="#B78888" />
    </linearGradient>
  </defs>
  <g clip-path="url(#clip_path_1)">
    <g transform="translate(-6 -7)">
      <rect width="263" height="263" fill="#FFFFFF" fill-rule="evenodd" fill-opacity="0" />
      <path d="M246.563 0C252.238 0 256.836 4.5988 256.836 10.2734C256.836 10.2734 256.836 246.563 256.836 246.563C256.836 252.238 252.238 256.836 246.563 256.836C246.563 256.836 10.2734 256.836 10.2734 256.836C4.5988 256.836 0 252.238 0 246.563C0 246.563 0 10.2734 0 10.2734C0 4.5988 4.5988 0 10.2734 0C10.2734 0 246.563 0 246.563 0Z" fill="#121721" transform="translate(5.137 6.164)" />
      <g transform="translate(17.465 20.547)">
        <path d="M0 114.549C0 51.2852 51.2852 0 114.549 0C177.813 0 229.098 51.2852 229.098 114.549C229.098 177.813 177.813 229.098 114.549 229.098C51.2852 229.098 0 177.813 0 114.549Z" />
        <path d="M114.549 0C51.2852 0 0 51.2852 0 114.549C0 177.813 51.2852 229.098 114.549 229.098C177.813 229.098 229.098 177.813 229.098 114.549C229.098 51.2852 177.813 0 114.549 0ZM9.94801 158.736C4.0009 144.676 1.02734 129.947 1.02734 114.549C1.02734 99.1511 4.0009 84.4219 9.94801 70.3614C15.6925 56.78 23.8022 44.7519 34.277 34.277C44.7519 23.802 56.78 15.6923 70.3614 9.94801C84.422 4.0009 99.1511 1.02734 114.549 1.02734C129.947 1.02734 144.676 4.0009 158.736 9.94801C172.317 15.6924 184.346 23.8021 194.82 34.277C205.296 44.7518 213.406 56.78 219.15 70.3614C225.097 84.4218 228.07 99.1509 228.07 114.549C228.07 129.947 225.097 144.676 219.15 158.736C213.405 172.318 205.295 184.346 194.82 194.82C184.346 205.295 172.317 213.405 158.736 219.15C144.676 225.097 129.947 228.07 114.549 228.07C99.1511 228.07 84.4219 225.097 70.3614 219.15C56.78 213.405 44.7518 205.295 34.277 194.82C23.8022 184.346 15.6925 172.317 9.94801 158.736Z" fill="url(#gradient_2)" fill-rule="evenodd" />
      </g>
      <path d="M84.3667 0.435246C86.6803 1.51541 87.6798 4.26571 86.5996 6.57927C86.5996 6.57927 8.81227 173.188 8.81227 173.188C7.73194 175.502 4.98181 176.501 2.66826 175.421C2.66826 175.421 2.66826 175.421 2.66826 175.421C0.354702 174.34 -0.64502 171.59 0.435307 169.277C0.435307 169.277 78.2227 2.66817 78.2227 2.66817C79.3029 0.354618 82.0532 -0.644924 84.3667 0.435246Z" fill="url(#gradient_3)" transform="translate(49.731 32.341)" />
      <path d="M2.66818 0.435242C4.98174 -0.64493 7.73204 0.354626 8.81221 2.66818C8.81221 2.66818 86.5996 169.277 86.5996 169.277C87.6799 171.59 86.6802 174.34 84.3667 175.421C84.3667 175.421 84.3667 175.421 84.3667 175.421C82.0531 176.501 79.303 175.502 78.2226 173.188C78.2226 173.188 0.435242 6.57927 0.435242 6.57927C-0.644928 4.26572 0.354614 1.51542 2.66818 0.435242Z" fill="url(#gradient_4)" transform="translate(128.348 32.539)" />
      <path d="M145.369 0C147.355 0 148.965 1.60957 148.965 3.5957C148.965 3.5957 148.965 3.5957 148.965 3.5957C148.965 5.58183 147.355 7.19141 145.369 7.19141C145.369 7.19141 3.5957 7.19141 3.5957 7.19141C1.60958 7.19141 0 5.58183 0 3.5957C0 3.5957 0 3.5957 0 3.5957C0 1.60957 1.60958 0 3.5957 0C3.5957 0 145.369 0 145.369 0Z" fill="url(#gradient_5)" transform="translate(58.559 131.5)" />
    </g>
  </g>
</svg>