<?xml version="1.0" encoding="utf-8"?>
<svg width="256" height="256" viewBox="0 0 256 256" fill="none" xmlns="http://www.w3.org/2000/svg">
  <defs>
    <radialGradient id="gradient_1" gradientUnits="userSpaceOnUse" cx="0" cy="0" r="1" gradientTransform="matrix(0 223 -111.5 0 111.5 0)">
      <stop offset="0" stop-color="#FFFFFF" />
      <stop offset="1" stop-color="#BCADAD" />
    </radialGradient>
    <linearGradient id="gradient_2" gradientUnits="userSpaceOnUse" x1="4.5" y1="0" x2="4.5" y2="188">
      <stop offset="0" stop-color="#C7A1A1" />
      <stop offset="0.997" stop-color="#430D0D" />
    </linearGradient>
    <linearGradient id="gradient_3" gradientUnits="userSpaceOnUse" x1="72.5" y1="0" x2="72.5" y2="7">
      <stop offset="0" stop-color="#5E1E1E" />
      <stop offset="0.989" stop-color="#B78888" />
    </linearGradient>
  </defs>
  <g>
    <rect width="256" height="256" fill="#FFFFFF" fill-rule="evenodd" fill-opacity="0" />
    <path d="M240 0C245.524 0 250 4.4764 250 10L250 240C250 245.524 245.524 250 240 250L10 250C4.4764 250 0 245.524 0 240L0 10C0 4.4764 4.4764 0 10 0L240 0Z" fill="#121721" transform="translate(5 6)" />
    <g transform="translate(17 20)">
      <path d="M0 111.5C0 49.9202 49.9202 0 111.5 0C173.08 0 223 49.9202 223 111.5C223 173.08 173.08 223 111.5 223C49.9202 223 0 173.08 0 111.5Z" />
      <path d="M111.5 0C49.9202 0 0 49.9202 0 111.5C0 173.08 49.9202 223 111.5 223C173.08 223 223 173.08 223 111.5C223 49.9202 173.08 0 111.5 0ZM9.68323 154.511Q1 133.982 1 111.5Q1 89.0181 9.68323 68.4887Q18.0706 48.6588 33.3647 33.3647Q48.6588 18.0704 68.4887 9.68323Q89.0182 1 111.5 1Q133.982 1 154.511 9.68323Q174.341 18.0705 189.635 33.3647Q204.93 48.6587 213.317 68.4887Q222 89.0179 222 111.5Q222 133.982 213.317 154.511Q204.929 174.342 189.635 189.635Q174.341 204.929 154.511 213.317Q133.982 222 111.5 222Q89.0181 222 68.4887 213.317Q48.6587 204.929 33.3647 189.635Q18.0706 174.341 9.68323 154.511Z" fill="url(#gradient_1)" fill-rule="evenodd" />
    </g>
    <path d="M4.50002 0C6.98563 1.90735e-06 9 2.01438 8.99998 4.50001L9 183.5C9 185.986 6.98564 188 4.50002 188L4.50002 188C2.01439 188 0 185.986 0 183.5L0 4.5C0 2.01438 2.01439 3.8147e-06 4.50002 0Z" fill="url(#gradient_2)" transform="matrix(0.906 0.423 -0.423 0.906 126.452 30)" />
    <path d="M4.5 0C6.98563 0 9 2.01438 9 4.50001L9 183.5C9 185.986 6.98563 188 4.5 188L4.5 188C2.0144 188 0 185.986 0 183.5L0 4.5C0 2.01438 2.01437 0 4.5 0Z" fill="url(#gradient_2)" transform="matrix(0.906 -0.423 0.423 0.906 123.452 34)" />
    <path d="M141.5 0C143.433 0 145 1.56674 145 3.5L145 3.5C145 5.43326 143.433 7 141.5 7L3.5 7C1.56674 7 0 5.43326 0 3.5L0 3.5C0 1.56674 1.56674 0 3.5 0L141.5 0Z" fill="url(#gradient_3)" transform="translate(57 128)" />
  </g>
</svg>